<svg width="40" height="40" viewBox="0 0 40 40" fill="none" xmlns="http://www.w3.org/2000/svg">
<rect width="40" height="40" rx="20" fill="#09B451"/>
<g clip-path="url(#clip0_1_1626)">
<path d="M18.5428 31.91C16.4023 31.6325 14.1988 30.7145 12.5938 29.4297C8.98029 26.5467 7.34004 21.992 8.27754 17.4687C8.67954 15.5157 9.72654 13.4607 11.0668 11.9802C12.0541 10.8691 13.2447 9.95697 14.5745 9.29297C16.34 8.39822 18.0275 7.99622 20.0195 7.99622C21.449 7.99622 22.598 8.18372 23.9143 8.63297C25.6435 9.2261 27.2144 10.2062 28.5074 11.4985C29.8004 12.7908 30.7813 14.3613 31.3753 16.0902C32.0788 18.1527 32.207 20.348 31.7578 22.5237C31.3985 24.2427 30.4723 26.1762 29.3323 27.5742C28.8635 28.1525 27.785 29.1837 27.2188 29.6015C25.5248 30.8596 23.5325 31.6552 21.4378 31.91C20.8205 31.988 19.1405 31.9842 18.5435 31.91H18.5428ZM21.8128 30.9065C24.7365 30.4164 27.3459 28.7851 29.0668 26.3712C31.094 23.5235 31.637 19.703 30.4925 16.3715C30.2233 15.59 29.555 14.2857 29.0668 13.598C28.5238 12.8285 27.1798 11.4807 26.4065 10.9377C25.6565 10.4067 24.3793 9.76172 23.5078 9.47672C21.9347 8.95407 20.2642 8.79157 18.6198 9.00122C16.9755 9.21087 15.3992 9.78732 14.0075 10.688C12.6982 11.5481 11.5789 12.6673 10.7188 13.9767C9.81837 15.3676 9.24204 16.9431 9.03239 18.5867C8.82273 20.2303 8.98512 21.9001 9.50754 23.4725C9.79629 24.3432 10.4413 25.625 10.9685 26.375C11.5153 27.1445 12.8593 28.4922 13.6288 29.0352C14.3203 29.5197 15.6208 30.1872 16.4023 30.461C18.1418 31.0519 20.0001 31.205 21.8128 30.9065ZM17.6563 26.8827C17.0956 26.7982 16.5576 26.6015 16.0745 26.3045C15.641 26.027 12.3673 22.82 12.2075 22.5192C12.0238 22.1757 12.344 21.5502 12.8015 21.359L13.016 21.269L12.356 20.597C11.993 20.2257 11.6488 19.8312 11.594 19.7217C11.465 19.472 11.4613 18.9365 11.582 18.698C11.633 18.6005 11.7538 18.452 11.8475 18.3695C12.008 18.2367 12.023 18.1895 12.008 17.8535C11.9885 17.5565 12.0155 17.4395 12.1445 17.2167C12.332 16.8965 12.719 16.6812 13.0978 16.6775C13.3085 16.6775 13.3633 16.6505 13.4533 16.4937C13.688 16.0835 14.3593 15.935 14.8715 16.1855L15.149 16.3182L15.2855 16.1855C15.473 16.0137 15.848 15.8615 16.094 15.8615C16.586 15.8615 17.2813 16.4277 17.2813 16.826C17.2813 17.3022 16.8478 17.3847 16.418 16.9902C16.133 16.7247 15.9883 16.697 15.8713 16.8845C15.8128 16.9745 15.953 17.1425 16.793 17.99C17.633 18.8337 17.7853 19.0137 17.7853 19.1735C17.7787 19.2959 17.7265 19.4115 17.6391 19.4975C17.5517 19.5835 17.4353 19.6338 17.3128 19.6385C17.1605 19.6385 16.9108 19.4195 15.758 18.2712C14.582 17.099 14.3675 16.9115 14.2738 16.9707C14.0195 17.1312 14.1058 17.2482 15.4805 18.6267C16.2268 19.3767 16.8403 20.0405 16.8403 20.1035C16.8403 20.2325 16.7233 20.471 16.6258 20.5332C16.5458 20.5683 16.4588 20.5845 16.3715 20.5805C16.211 20.5842 15.965 20.3615 14.657 19.0572C13.3445 17.7522 13.1098 17.5415 13.016 17.6C12.758 17.7642 12.8443 17.8775 14.3405 19.3812C15.1573 20.198 15.8405 20.9285 15.86 21.0065C15.9028 21.1475 15.809 21.3935 15.6845 21.479C15.6019 21.5141 15.5125 21.5302 15.4228 21.5262C15.2623 21.5262 15.0598 21.3507 13.9775 20.2685C12.9343 19.2252 12.692 19.0107 12.5593 19.0227C12.1843 19.0655 12.317 19.2335 14.2543 21.1752C15.9343 22.859 16.1488 23.0975 16.1488 23.273C16.1505 23.3374 16.136 23.4012 16.1066 23.4586C16.0773 23.516 16.034 23.5651 15.9808 23.6015C15.68 23.84 15.563 23.7852 14.8048 23.051C14.4178 22.6797 14.0195 22.3205 13.9138 22.2537C13.7225 22.1367 13.238 22.0857 13.148 22.1795C13.1165 22.2065 13.8313 22.961 14.7343 23.855C16.238 25.343 16.4098 25.496 16.8515 25.7067C17.2585 25.9094 17.7067 26.0155 18.1613 26.0168C18.6159 26.0181 19.0647 25.9145 19.4728 25.7142C20.7343 25.1127 21.434 23.6517 21.0898 22.3272C20.918 21.6672 20.7028 21.3507 19.8358 20.456C18.836 19.4322 18.605 19.151 18.359 18.659C18.0853 18.1085 17.9683 17.573 17.9683 16.9047C17.9683 16.1817 18.0425 15.854 18.3628 15.1782C18.6673 14.534 19.304 13.8582 19.9333 13.5102C21.1678 12.8225 22.793 12.881 23.972 13.6512C24.2068 13.8035 25.0543 14.6007 26.1088 15.659C27.6755 17.2295 27.8548 17.4327 27.8548 17.612C27.8548 18.038 27.5068 18.5105 27.1205 18.608C26.9758 18.647 27.0035 18.686 27.6598 19.3542C28.0423 19.7412 28.3978 20.159 28.4525 20.288C28.6363 20.7297 28.5538 21.1587 28.2178 21.5105C28.046 21.6905 28.0228 21.7527 28.0183 22.112C28.0145 22.4285 27.9793 22.5612 27.854 22.7412C27.7551 22.8876 27.6227 23.0083 27.4677 23.0933C27.3127 23.1782 27.1397 23.2249 26.963 23.2295C26.7208 23.2295 26.6743 23.2527 26.5528 23.4365C26.279 23.8587 25.568 24.0065 25.1075 23.7335L24.8773 23.597L24.713 23.7575C24.35 24.1055 23.7635 24.152 23.3188 23.867C22.9595 23.6405 22.694 23.324 22.694 23.1245C22.694 22.949 22.9483 22.6595 23.1043 22.6595C23.2528 22.6595 23.4523 22.7765 23.6788 22.988C23.9053 23.2025 24.101 23.2025 24.1318 22.9842C24.1475 22.8672 23.96 22.6445 23.2018 21.8825C22.4045 21.0777 22.2523 20.894 22.2523 20.738C22.2505 20.6509 22.2666 20.5643 22.2995 20.4837C22.3858 20.3547 22.628 20.2647 22.7758 20.3037C22.8538 20.3232 23.5138 20.933 24.2368 21.6552C24.9635 22.382 25.6003 22.9752 25.6588 22.9752C25.8193 22.9752 25.9243 22.8147 25.85 22.6782C25.8148 22.616 25.2013 21.9867 24.4903 21.2757C23.3773 20.1665 23.1973 19.9595 23.1973 19.7952C23.1936 19.7068 23.2098 19.6186 23.2445 19.5372C23.3113 19.4397 23.5453 19.3227 23.678 19.3227C23.7365 19.3227 24.4708 20.006 25.3108 20.8422C26.8498 22.3737 26.963 22.4592 27.1235 22.2057C27.182 22.112 26.9713 21.8735 25.6663 20.5647C24.3185 19.2132 24.1393 19.01 24.1393 18.8345C24.1393 18.7137 24.194 18.5885 24.2803 18.5105C24.5653 18.2412 24.6515 18.296 26.0383 19.6745C27.3508 20.9832 27.4678 21.0687 27.6283 20.819C27.6868 20.7252 27.4213 20.4365 25.7923 18.803C24.0185 17.0217 23.8903 16.877 23.8903 16.67C23.8903 16.3572 24.0703 16.2087 24.4175 16.2327C24.4798 16.2365 24.8548 16.553 25.2418 16.9317C25.6325 17.3105 26.054 17.666 26.1793 17.7207C26.4253 17.822 26.7103 17.8377 26.8318 17.7597C26.9488 17.6855 23.7065 14.4942 23.285 14.2715C22.9236 14.0764 22.5261 13.9574 22.117 13.9217C21.7079 13.886 21.2958 13.9344 20.9061 14.064C20.5164 14.1935 20.1573 14.4015 19.8509 14.675C19.5446 14.9485 19.2975 15.2819 19.1248 15.6545C18.9215 16.088 18.8945 16.217 18.8668 16.7757C18.8435 17.303 18.863 17.4672 18.9763 17.8032C19.1795 18.401 19.355 18.647 20.2655 19.577C21.2503 20.585 21.4378 20.8152 21.6875 21.3545C22.391 22.8545 22.094 24.5892 20.9338 25.745C20.051 26.6315 18.848 27.0455 17.6563 26.882V26.8827Z" fill="white"/>
</g>
<defs>
<clipPath id="clip0_1_1626">
<rect width="24" height="24" fill="white" transform="translate(8 8)"/>
</clipPath>
</defs>
</svg>
